<svg class="main-svg" xmlns="http://www.w3.org/2000/svg" xmlns:xlink="http://www.w3.org/1999/xlink" width="700" height="450" style="" viewBox="0 0 700 450"><rect x="0" y="0" width="700" height="450" style="fill: rgb(255, 255, 255); fill-opacity: 1;"/><defs id="defs-b3766c"><g class="clips"><clipPath id="clipb3766cxyplot" class="plotclip"><rect width="548" height="330"/></clipPath><clipPath class="axesclip" id="clipb3766cx"><rect x="60" y="0" width="548" height="450"/></clipPath><clipPath class="axesclip" id="clipb3766cy"><rect x="0" y="60" width="700" height="330"/></clipPath><clipPath class="axesclip" id="clipb3766cxy"><rect x="60" y="60" width="548" height="330"/></clipPath></g><g class="gradients"/></defs><g class="bglayer"/><g class="layer-below"><g class="imagelayer"/><g class="shapelayer"/></g><g class="cartesianlayer"><g class="subplot xy"><g class="layer-subplot"><g class="shapelayer"/><g class="imagelayer"/></g><g class="gridlayer"><g class="x"><path class="xgrid crisp" transform="translate(200.17,0)" d="M0,60v330" style="stroke: rgb(238, 238, 238); stroke-opacity: 1; stroke-width: 1px;"/><path class="xgrid crisp" transform="translate(340.34,0)" d="M0,60v330" style="stroke: rgb(238, 238, 238); stroke-opacity: 1; stroke-width: 1px;"/><path class="xgrid crisp" transform="translate(480.5,0)" d="M0,60v330" style="stroke: rgb(238, 238, 238); stroke-opacity: 1; stroke-width: 1px;"/></g><g class="y"><path class="ygrid crisp" transform="translate(0,308.99)" d="M60,0h548" style="stroke: rgb(238, 238, 238); stroke-opacity: 1; stroke-width: 1px;"/><path class="ygrid crisp" transform="translate(0,244.48)" d="M60,0h548" style="stroke: rgb(238, 238, 238); stroke-opacity: 1; stroke-width: 1px;"/><path class="ygrid crisp" transform="translate(0,179.95999999999998)" d="M60,0h548" style="stroke: rgb(238, 238, 238); stroke-opacity: 1; stroke-width: 1px;"/><path class="ygrid crisp" transform="translate(0,115.45)" d="M60,0h548" style="stroke: rgb(238, 238, 238); stroke-opacity: 1; stroke-width: 1px;"/></g></g><g class="zerolinelayer"><path class="xzl zl crisp" transform="translate(60,0)" d="M0,60v330" style="stroke: rgb(68, 68, 68); stroke-opacity: 1; stroke-width: 1px;"/><path class="yzl zl crisp" transform="translate(0,373.5)" d="M60,0h548" style="stroke: rgb(68, 68, 68); stroke-opacity: 1; stroke-width: 1px;"/></g><path class="xlines-below"/><path class="ylines-below"/><g class="overlines-below"/><g class="xaxislayer-below"/><g class="yaxislayer-below"/><g class="overaxes-below"/><g class="plot" transform="translate(60, 60)" clip-path="url('#clipb3766cxyplot')"><g class="scatterlayer mlayer"><g class="trace scatter tracecb76c6" style="stroke-miterlimit: 2; opacity: 1;"><g class="fills"/><g class="errorbars"/><g class="lines"><path class="js-line" d="M0,313.5L0.81,16.5L1.65,16.79L2.49,18.68L3.34,28.63L5.86,44.54L6.7,48.48L7.54,58.26L8.38,56.15L10.06,82.93L10.91,87.51L11.77,84.11L12.62,91.97L14.3,94.46L15.14,101.08L15.98,101.93L16.82,111.95L18.5,115.42L19.34,110.96L20.18,120.3L21.03,120.2L22.74,127.39L23.58,124.78L25.26,132.26L26.1,136.93L26.94,135.63L27.78,138.59L28.62,142.34L29.46,141.8L30.3,150.23L31.15,145.97L32.83,153.39L33.7,155.76L37.06,163.3L37.9,162.98L38.74,159.12L39.58,161.15L40.42,167.02L41.27,164.76L42.11,164.51L42.95,170.86L43.79,169.78L44.66,175.87L45.5,177.61L46.34,181.37L47.18,182.34L48.02,186.22L48.86,181.08L49.7,186.91L50.54,181.11L51.39,181.92L52.23,182.07L53.07,185.44L53.91,189.24L54.75,183.6L56.46,194.48L57.3,201.45L58.14,192.6L58.98,196.11L59.82,194.2L60.66,194.83L61.51,201.93L62.35,196.01L63.19,193.41L64.03,196.46L64.87,195.53L65.71,201.6L66.58,209.88L67.42,209.18L69.1,197.67L69.94,202.48L70.78,207.52L71.63,206.21L74.15,213.73L74.99,212.97L76.67,208.44L77.54,217.78L78.38,220.32L79.22,217.27L80.06,221.19L80.9,217.23L81.75,220.43L82.59,218.92L83.43,223.09L84.27,216.1L85.11,222.27L85.95,221.43L86.79,218.48L87.63,224.07L88.5,232.82L89.34,227.83L91.02,225.18L91.87,230.59L92.71,229.91L93.55,223.2L94.39,233.28L95.23,228.79L96.07,229.44L96.91,228.19L97.75,229.13L98.59,228.78L100.3,242.04L101.15,242.85L101.99,239.51L102.83,240.92L103.67,238.24L104.51,241.27L105.35,238.7L106.19,240.94L107.87,234.38L108.71,238.03L109.56,239.9L110.42,247.62L111.27,251.39L112.11,244.57L112.95,249.44L113.79,248.09L114.63,248.37L115.47,252.79L117.15,239.85L117.99,247.32L120.52,244.14L121.39,261.21L122.23,254.55L123.07,255L123.91,257.67L124.75,256.92L125.59,251.9L126.43,252.36L127.27,251.92L128.11,249.96L129.8,256.24L130.64,254.92L131.48,254.94L132.35,266.51L134.03,267.32L134.87,268.8L137.39,256.47L138.23,261.45L139.92,259.32L140.76,255.59L142.44,260.43L143.31,274.03L144.99,269.76L145.83,264.97L146.67,273.3L147.51,267.75L148.35,269.22L149.19,269.01L150.04,266.12L150.88,266.79L151.72,266.81L152.56,266.01L153.4,264.43L154.27,279.76L155.11,278.05L155.95,280.75L156.79,281.15L157.63,277.31L159.31,277.41L160.16,279.89L161.84,273.64L162.68,276.25L163.52,276.48L164.36,273.31L166.07,287.56L166.91,287.62L167.75,284.53L168.59,284.8L169.43,284.77L170.28,283.07L171.12,280.85L171.96,282.52L172.8,284.02L173.64,279.94L174.48,280.68L175.32,283.28L177.03,294.35L177.87,290.63L178.71,288.13L179.55,288.92L180.4,287.6L181.24,288.46L182.92,286.82L183.76,280.68L184.6,285.83L185.44,282.88L186.28,285.61L187.15,292.24L187.99,294.03L188.83,293.2L191.36,292.01L192.2,289.51L193.04,293.6L193.88,292.02L195.56,286.52L196.4,289.57L197.24,289.72L198.11,298.45L199.8,292.81L200.64,296.14L202.32,294.43L203.16,295.93L206.52,291.56L207.36,288.1L210.76,304.94L211.6,298.28L212.44,298.12L213.28,298.76L214.96,299.52L215.8,301.27L217.48,296.77L218.33,296.16L220.04,302.68L220.88,301.72L221.72,304.51L222.56,301.64L223.4,303.62L224.24,302.57L225.92,302.34L226.76,299.7L228.45,300.69L229.29,299.96L231,303.48L231.84,302.18L232.68,300.42L233.52,302.18L235.2,305.85L236.04,302.8L236.88,303.94L237.72,301.49L238.57,300.46L239.41,302.54L241.09,301.71L241.96,305L243.64,303.63L244.48,305.15L245.32,303.37L246.16,305.1L247.84,302.7L248.69,303.64L249.53,301.58L250.37,303.77L251.21,305.75L252.05,304.64L252.92,304.62L253.76,305.64L256.28,303.75L257.12,302.93L258.81,305.01L259.65,304.69L260.49,307.01L261.33,305.8L263.01,302.28L263.88,307.55L264.72,309.54L265.56,306.71L268.08,307.84L268.93,307.29L269.77,306.04L270.61,307.92L271.45,308.13L272.29,306.15L273.13,307.53L273.97,307.21L275.68,309.79L276.52,308.54L277.36,309.83L278.21,309.45L279.89,305.42L280.73,307.72L281.57,308.63L282.41,308.15L283.25,306.16L284.09,306.66L284.93,309.87L285.8,309.65L286.64,309.26L287.48,309.84L288.33,310.53L289.17,309.13L292.53,306.23L293.37,306.52L294.21,309.02L295.05,306.84L295.89,306.7L296.76,309.52L298.45,309.56L299.29,309.16L300.13,308.67L300.97,309.63L302.65,310.03L303.49,308.79L306.86,309.34L307.72,308.12L308.57,308.47L309.41,310.15L311.09,311.17L311.93,310.1L312.77,307.94L313.61,308.55L314.45,307.28L315.29,307.41L316.13,309.1L316.98,307.75L317.82,307.74L318.69,310.12L319.53,309.76L320.37,311.38L322.05,310.68L322.89,311.05L323.73,310.34L324.57,310.7L326.25,309.21L327.1,309.88L327.94,310.03L328.78,310.99L331.33,312.59L332.17,312.33L333.85,312.19L334.69,311.75L335.53,311.92L336.37,311.09L338.06,310.22L338.9,310.79L339.74,309.25L340.61,311.39L342.29,312.35L343.13,311.23L344.81,312.13L345.65,311.45L347.34,309.84L348.18,310.79L353.25,311.62L354.09,310.75L356.61,312.6L357.46,311.17L358.3,311.13L359.14,310.14L360.82,310.89L361.66,310.26L362.53,310.71L363.37,310.2L367.58,312.24L368.42,312.2L370.1,311.24L370.94,310.02L371.78,310.85L372.62,309.86L374.33,311.64L375.17,310.98L376.86,311.93L377.7,311.75L379.38,311.63L380.22,312.49L384.45,311.33L385.29,312.48L386.13,312.67L386.98,311.93L388.66,312.55L389.5,311.82L390.34,311.5L391.18,312.15L392.02,311.99L392.86,312.61L394.54,312.46L395.41,312.55L397.1,312.61L397.94,312.78L399.62,311.8L400.46,312.23L402.14,312.27L402.98,312.77L410.58,312.63L411.42,312.22L412.26,311.76L413.1,312.29L419.02,312.21L419.86,312L421.54,311.92L422.38,312.61L424.06,311.97L424.9,312.74L427.43,312.9L428.3,313.1L430.82,312.44L431.66,312.9L436.71,313.1L437.55,313.11L440.94,313.31L441.78,313.35L450.22,312.74L451.06,313.03L453.58,311.88L454.42,313.17L457.79,312.72L458.63,312.51L462.02,313.21L462.86,312.92L467.07,313.09L467.91,312.19L468.75,311.71L469.59,312.4L472.14,313.32L472.98,313.31L476.35,313L477.19,312.67L479.71,313.34L480.55,313.24L483.94,312.18L484.78,312.6L486.47,313.35L487.31,313.12L510.91,313.46L511.75,313.21L516.83,313.45L517.67,313.45L548,313.46" style="vector-effect: non-scaling-stroke; fill: none; stroke: rgb(31, 119, 180); stroke-opacity: 1; stroke-width: 2px; opacity: 1;"/></g><g class="points"/><g class="text"/></g></g></g><g class="overplot"/><path class="xlines-above crisp" d="M0,0" style="fill: none;"/><path class="ylines-above crisp" d="M0,0" style="fill: none;"/><g class="overlines-above"/><g class="xaxislayer-above"><g class="xtick"><text text-anchor="middle" x="0" y="403" transform="translate(60,0)" style="font-family: 'Open Sans', verdana, arial, sans-serif; font-size: 12px; fill: rgb(68, 68, 68); fill-opacity: 1; white-space: pre;">0</text></g><g class="xtick"><text text-anchor="middle" x="0" y="403" transform="translate(200.17,0)" style="font-family: 'Open Sans', verdana, arial, sans-serif; font-size: 12px; fill: rgb(68, 68, 68); fill-opacity: 1; white-space: pre;">5k</text></g><g class="xtick"><text text-anchor="middle" x="0" y="403" transform="translate(340.34,0)" style="font-family: 'Open Sans', verdana, arial, sans-serif; font-size: 12px; fill: rgb(68, 68, 68); fill-opacity: 1; white-space: pre;">10k</text></g><g class="xtick"><text text-anchor="middle" x="0" y="403" transform="translate(480.5,0)" style="font-family: 'Open Sans', verdana, arial, sans-serif; font-size: 12px; fill: rgb(68, 68, 68); fill-opacity: 1; white-space: pre;">15k</text></g></g><g class="yaxislayer-above"><g class="ytick"><text text-anchor="end" x="59" y="4.199999999999999" transform="translate(0,373.5)" style="font-family: 'Open Sans', verdana, arial, sans-serif; font-size: 12px; fill: rgb(68, 68, 68); fill-opacity: 1; white-space: pre;">0</text></g><g class="ytick"><text text-anchor="end" x="59" y="4.199999999999999" transform="translate(0,308.99)" style="font-family: 'Open Sans', verdana, arial, sans-serif; font-size: 12px; fill: rgb(68, 68, 68); fill-opacity: 1; white-space: pre;">0.5</text></g><g class="ytick"><text text-anchor="end" x="59" y="4.199999999999999" transform="translate(0,244.48)" style="font-family: 'Open Sans', verdana, arial, sans-serif; font-size: 12px; fill: rgb(68, 68, 68); fill-opacity: 1; white-space: pre;">1</text></g><g class="ytick"><text text-anchor="end" x="59" y="4.199999999999999" transform="translate(0,179.95999999999998)" style="font-family: 'Open Sans', verdana, arial, sans-serif; font-size: 12px; fill: rgb(68, 68, 68); fill-opacity: 1; white-space: pre;">1.5</text></g><g class="ytick"><text text-anchor="end" x="59" y="4.199999999999999" transform="translate(0,115.45)" style="font-family: 'Open Sans', verdana, arial, sans-serif; font-size: 12px; fill: rgb(68, 68, 68); fill-opacity: 1; white-space: pre;">2</text></g></g><g class="overaxes-above"/></g></g><g class="polarlayer"/><g class="ternarylayer"/><g class="geolayer"/><g class="funnelarealayer"/><g class="pielayer"/><g class="treemaplayer"/><g class="sunburstlayer"/><g class="glimages"/><defs id="topdefs-b3766c"><g class="clips"/><clipPath id="legendb3766c"><rect width="69" height="29" x="0" y="0"/></clipPath></defs><g class="layer-above"><g class="imagelayer"/><g class="shapelayer"/></g><g class="infolayer"><g class="legend" pointer-events="all" transform="translate(618.96, 60)"><rect class="bg" shape-rendering="crispEdges" width="69" height="29" x="0" y="0" style="stroke: rgb(68, 68, 68); stroke-opacity: 1; fill: rgb(255, 255, 255); fill-opacity: 1; stroke-width: 0px;"/><g class="scrollbox" transform="translate(0, 0)" clip-path="url('#legendb3766c')"><g class="groups"><g class="traces" transform="translate(0, 14.5)" style="opacity: 1;"><text class="legendtext user-select-none" text-anchor="start" x="40" y="4.680000000000001" style="font-family: 'Open Sans', verdana, arial, sans-serif; font-size: 12px; fill: rgb(68, 68, 68); fill-opacity: 1; white-space: pre;">loss</text><g class="layers" style="opacity: 1;"><g class="legendfill"/><g class="legendlines"><path class="js-line" d="M5,0h30" style="fill: none; stroke: rgb(31, 119, 180); stroke-opacity: 1; stroke-width: 2px;"/></g><g class="legendsymbols"><g class="legendpoints"/></g></g><rect class="legendtoggle" pointer-events="all" x="0" y="-9.5" width="63.828125" height="19" style="cursor: pointer; fill: rgb(0, 0, 0); fill-opacity: 0;"/></g></g></g><rect class="scrollbar" rx="20" ry="3" width="0" height="0" x="0" y="0" style="fill: rgb(128, 139, 164); fill-opacity: 1;"/></g><g class="g-gtitle"><text class="gtitle" x="350" y="30" text-anchor="middle" dy="0em" style="font-family: 'Open Sans', verdana, arial, sans-serif; font-size: 17px; fill: rgb(68, 68, 68); opacity: 1; font-weight: normal; white-space: pre;">loss_tracker</text></g><g class="g-xtitle"/><g class="g-ytitle"/></g></svg>