<svg class="main-svg" xmlns="http://www.w3.org/2000/svg" xmlns:xlink="http://www.w3.org/1999/xlink" width="700" height="450" style="" viewBox="0 0 700 450"><rect x="0" y="0" width="700" height="450" style="fill: rgb(255, 255, 255); fill-opacity: 1;"/><defs id="defs-27e532"><g class="clips"><clipPath id="clip27e532xyplot" class="plotclip"><rect width="548" height="330"/></clipPath><clipPath class="axesclip" id="clip27e532x"><rect x="60" y="0" width="548" height="450"/></clipPath><clipPath class="axesclip" id="clip27e532y"><rect x="0" y="60" width="700" height="330"/></clipPath><clipPath class="axesclip" id="clip27e532xy"><rect x="60" y="60" width="548" height="330"/></clipPath></g><g class="gradients"/></defs><g class="bglayer"/><g class="layer-below"><g class="imagelayer"/><g class="shapelayer"/></g><g class="cartesianlayer"><g class="subplot xy"><g class="layer-subplot"><g class="shapelayer"/><g class="imagelayer"/></g><g class="gridlayer"><g class="x"><path class="xgrid crisp" transform="translate(200.17,0)" d="M0,60v330" style="stroke: rgb(238, 238, 238); stroke-opacity: 1; stroke-width: 1px;"/><path class="xgrid crisp" transform="translate(340.34,0)" d="M0,60v330" style="stroke: rgb(238, 238, 238); stroke-opacity: 1; stroke-width: 1px;"/><path class="xgrid crisp" transform="translate(480.5,0)" d="M0,60v330" style="stroke: rgb(238, 238, 238); stroke-opacity: 1; stroke-width: 1px;"/></g><g class="y"><path class="ygrid crisp" transform="translate(0,319.32)" d="M60,0h548" style="stroke: rgb(238, 238, 238); stroke-opacity: 1; stroke-width: 1px;"/><path class="ygrid crisp" transform="translate(0,265.14)" d="M60,0h548" style="stroke: rgb(238, 238, 238); stroke-opacity: 1; stroke-width: 1px;"/><path class="ygrid crisp" transform="translate(0,210.96)" d="M60,0h548" style="stroke: rgb(238, 238, 238); stroke-opacity: 1; stroke-width: 1px;"/><path class="ygrid crisp" transform="translate(0,156.79000000000002)" d="M60,0h548" style="stroke: rgb(238, 238, 238); stroke-opacity: 1; stroke-width: 1px;"/><path class="ygrid crisp" transform="translate(0,102.61)" d="M60,0h548" style="stroke: rgb(238, 238, 238); stroke-opacity: 1; stroke-width: 1px;"/></g></g><g class="zerolinelayer"><path class="xzl zl crisp" transform="translate(60,0)" d="M0,60v330" style="stroke: rgb(68, 68, 68); stroke-opacity: 1; stroke-width: 1px;"/><path class="yzl zl crisp" transform="translate(0,373.5)" d="M60,0h548" style="stroke: rgb(68, 68, 68); stroke-opacity: 1; stroke-width: 1px;"/></g><path class="xlines-below"/><path class="ylines-below"/><g class="overlines-below"/><g class="xaxislayer-below"/><g class="yaxislayer-below"/><g class="overaxes-below"/><g class="plot" transform="translate(60, 60)" clip-path="url('#clip27e532xyplot')"><g class="scatterlayer mlayer"><g class="trace scatter traceef8f93" style="stroke-miterlimit: 2; opacity: 1;"><g class="fills"/><g class="errorbars"/><g class="lines"><path class="js-line" d="M0,313.5L0.81,16.5L1.65,250.27L2.49,280.06L3.34,280.89L5.02,287L5.86,287.65L9.22,289.89L10.06,290.35L20.18,292.01L21.03,292.15L37.9,294.16L38.74,294.07L40.42,294.22L41.27,294.42L44.66,295.26L45.5,294.83L52.23,295.58L53.07,295.78L57.3,295.84L58.14,296.32L60.66,296.16L61.51,296.36L63.19,296.46L64.03,296.88L65.71,296.62L66.58,297.05L68.26,296.77L69.1,296.86L70.78,297.04L71.63,296.68L79.22,297.47L80.06,297.15L81.75,297.86L82.59,297.33L84.27,297.8L85.11,297.47L90.18,297.92L91.02,297.28L92.71,297.88L93.55,297.59L94.39,298.26L95.23,297.81L96.91,298.23L97.75,298.06L101.15,299.47L101.99,299.27L102.83,298.85L103.67,299.27L107.87,299.55L108.71,299.82L112.95,300.07L113.79,299.89L114.63,300.11L115.47,299.52L117.15,300.57L117.99,299.34L119.68,299.97L120.52,299.69L122.23,300.22L123.07,300.18L127.27,300.31L128.11,300.62L131.48,300.76L132.35,300.94L134.03,300.63L134.87,301.26L136.55,300.31L137.39,300.86L140.76,300.91L141.6,300.81L142.44,300.53L143.31,301.33L145.83,300.67L146.67,300.52L155.95,301.67L156.79,301.22L157.63,300.98L158.47,301.62L161,301.57L161.84,301.7L164.36,301.34L165.23,302.07L167.75,301.71L168.59,301.86L171.12,301.46L171.96,302.34L175.32,302.21L176.19,302.88L186.28,302.67L187.15,303.37L187.99,302.51L188.83,302.83L190.52,303.08L191.36,303L193.88,303.32L194.72,302.86L196.4,303.49L197.24,303.02L198.11,303.76L198.95,303.28L199.8,303.84L200.64,303.4L203.16,303.32L204,303.58L206.52,304.14L207.36,303.29L208.21,303.32L209.07,304.57L210.76,304.98L211.6,305.14L212.44,304.87L213.28,305.45L214.96,304.93L215.8,305.21L231,305.71L231.84,306.22L233.52,305.75L234.36,305.85L240.25,305.71L241.09,305.4L241.96,306.28L242.8,306.03L246.16,305.68L247,306L250.37,305.75L251.21,305.96L252.05,305.5L252.92,306.03L256.28,306.23L257.12,306.22L259.65,306.06L260.49,306.25L263.01,306L263.88,306.64L266.4,306.07L267.24,306.22L273.97,306.31L274.84,306.77L281.57,306.2L282.41,306.61L283.25,305.99L284.09,306.59L288.33,306.46L289.17,306.49L290.85,306.4L291.69,306.35L295.05,306.38L295.89,306.28L297.6,306.82L298.45,306.62L300.97,306.13L301.81,306.61L306.01,306.49L306.86,306.74L308.57,307.2L309.41,306.82L310.25,306.37L311.09,306.86L314.45,306.49L315.29,306.83L316.98,307.02L317.82,306.57L319.53,307.72L320.37,308.02L332.17,308.25L333.01,308.48L350.7,308.04L351.57,308.91L356.61,308.3L357.46,308.57L361.66,308.31L362.53,308.81L368.42,308.32L369.26,308.55L371.78,308.59L372.62,308.73L376.01,309.01L376.86,308.71L387.82,308.7L388.66,308.97L392.02,308.39L392.86,308.65L394.54,308.65L395.41,308.93L400.46,308.93L401.3,308.56L416.47,308.65L417.34,309.14L421.54,309.01L422.38,308.81L427.43,308.62L428.3,309.34L429.98,309.89L430.82,309.97L438.39,309.92L439.26,310.22L442.62,310.19L443.46,310.08L451.06,310.41L451.9,310.11L453.58,310.44L454.42,310.22L459.47,309.94L460.31,310.18L465.39,310.47L466.23,310.57L470.43,310.32L471.27,310.07L472.98,310.69L473.82,310.7L477.19,310.33L478.03,310.29L481.39,310.3L482.23,310.09L483.94,310.84L484.78,310.64L490.67,310.29L491.51,310.22L499.11,310.54L499.95,310.23L502.47,310.56L503.31,310.22L507.55,310.67L508.39,310.63L510.91,310.51L511.75,310.5L515.12,310.29L515.99,310.6L519.35,310.67L520.19,310.56L526.08,310.24L526.95,311.05L531.15,310.8L531.99,310.88L533.67,310.51L534.52,310.68L537.04,310.53L537.91,311.19L548,311.27" style="vector-effect: non-scaling-stroke; fill: none; stroke: rgb(31, 119, 180); stroke-opacity: 1; stroke-width: 2px; opacity: 1;"/></g><g class="points"/><g class="text"/></g></g></g><g class="overplot"/><path class="xlines-above crisp" d="M0,0" style="fill: none;"/><path class="ylines-above crisp" d="M0,0" style="fill: none;"/><g class="overlines-above"/><g class="xaxislayer-above"><g class="xtick"><text text-anchor="middle" x="0" y="403" transform="translate(60,0)" style="font-family: 'Open Sans', verdana, arial, sans-serif; font-size: 12px; fill: rgb(68, 68, 68); fill-opacity: 1; white-space: pre;">0</text></g><g class="xtick"><text text-anchor="middle" x="0" y="403" transform="translate(200.17,0)" style="font-family: 'Open Sans', verdana, arial, sans-serif; font-size: 12px; fill: rgb(68, 68, 68); fill-opacity: 1; white-space: pre;">5k</text></g><g class="xtick"><text text-anchor="middle" x="0" y="403" transform="translate(340.34,0)" style="font-family: 'Open Sans', verdana, arial, sans-serif; font-size: 12px; fill: rgb(68, 68, 68); fill-opacity: 1; white-space: pre;">10k</text></g><g class="xtick"><text text-anchor="middle" x="0" y="403" transform="translate(480.5,0)" style="font-family: 'Open Sans', verdana, arial, sans-serif; font-size: 12px; fill: rgb(68, 68, 68); fill-opacity: 1; white-space: pre;">15k</text></g></g><g class="yaxislayer-above"><g class="ytick"><text text-anchor="end" x="59" y="4.199999999999999" transform="translate(0,373.5)" style="font-family: 'Open Sans', verdana, arial, sans-serif; font-size: 12px; fill: rgb(68, 68, 68); fill-opacity: 1; white-space: pre;">0</text></g><g class="ytick"><text text-anchor="end" x="59" y="4.199999999999999" transform="translate(0,319.32)" style="font-family: 'Open Sans', verdana, arial, sans-serif; font-size: 12px; fill: rgb(68, 68, 68); fill-opacity: 1; white-space: pre;">5</text></g><g class="ytick"><text text-anchor="end" x="59" y="4.199999999999999" transform="translate(0,265.14)" style="font-family: 'Open Sans', verdana, arial, sans-serif; font-size: 12px; fill: rgb(68, 68, 68); fill-opacity: 1; white-space: pre;">10</text></g><g class="ytick"><text text-anchor="end" x="59" y="4.199999999999999" transform="translate(0,210.96)" style="font-family: 'Open Sans', verdana, arial, sans-serif; font-size: 12px; fill: rgb(68, 68, 68); fill-opacity: 1; white-space: pre;">15</text></g><g class="ytick"><text text-anchor="end" x="59" y="4.199999999999999" transform="translate(0,156.79000000000002)" style="font-family: 'Open Sans', verdana, arial, sans-serif; font-size: 12px; fill: rgb(68, 68, 68); fill-opacity: 1; white-space: pre;">20</text></g><g class="ytick"><text text-anchor="end" x="59" y="4.199999999999999" transform="translate(0,102.61)" style="font-family: 'Open Sans', verdana, arial, sans-serif; font-size: 12px; fill: rgb(68, 68, 68); fill-opacity: 1; white-space: pre;">25</text></g></g><g class="overaxes-above"/></g></g><g class="polarlayer"/><g class="ternarylayer"/><g class="geolayer"/><g class="funnelarealayer"/><g class="pielayer"/><g class="treemaplayer"/><g class="sunburstlayer"/><g class="glimages"/><defs id="topdefs-27e532"><g class="clips"/><clipPath id="legend27e532"><rect width="69" height="29" x="0" y="0"/></clipPath></defs><g class="layer-above"><g class="imagelayer"/><g class="shapelayer"/></g><g class="infolayer"><g class="legend" pointer-events="all" transform="translate(618.96, 60)"><rect class="bg" shape-rendering="crispEdges" width="69" height="29" x="0" y="0" style="stroke: rgb(68, 68, 68); stroke-opacity: 1; fill: rgb(255, 255, 255); fill-opacity: 1; stroke-width: 0px;"/><g class="scrollbox" transform="translate(0, 0)" clip-path="url('#legend27e532')"><g class="groups"><g class="traces" transform="translate(0, 14.5)" style="opacity: 1;"><text class="legendtext user-select-none" text-anchor="start" x="40" y="4.680000000000001" style="font-family: 'Open Sans', verdana, arial, sans-serif; font-size: 12px; fill: rgb(68, 68, 68); fill-opacity: 1; white-space: pre;">loss</text><g class="layers" style="opacity: 1;"><g class="legendfill"/><g class="legendlines"><path class="js-line" d="M5,0h30" style="fill: none; stroke: rgb(31, 119, 180); stroke-opacity: 1; stroke-width: 2px;"/></g><g class="legendsymbols"><g class="legendpoints"/></g></g><rect class="legendtoggle" pointer-events="all" x="0" y="-9.5" width="63.828125" height="19" style="cursor: pointer; fill: rgb(0, 0, 0); fill-opacity: 0;"/></g></g></g><rect class="scrollbar" rx="20" ry="3" width="0" height="0" x="0" y="0" style="fill: rgb(128, 139, 164); fill-opacity: 1;"/></g><g class="g-gtitle"><text class="gtitle" x="350" y="30" text-anchor="middle" dy="0em" style="font-family: 'Open Sans', verdana, arial, sans-serif; font-size: 17px; fill: rgb(68, 68, 68); opacity: 1; font-weight: normal; white-space: pre;">loss_tracker</text></g><g class="g-xtitle"/><g class="g-ytitle"/></g></svg>